<svg width="264" height="71" viewBox="0 0 264 71" fill="none" xmlns="http://www.w3.org/2000/svg">
<g clip-path="url(#clip0_2_25)">
<path d="M4.81576 0.336304V28.7747H9.34258V29.5433H0V28.7747H3.99708V1.10491H0V0.336304H4.81576ZM28.3648 0.336304V1.10491H24.2714V29.9276H23.212L4.23787 0.336304H10.3539L23.4528 21.1367V1.10491H19.0223V0.336304H28.3648Z" fill="black"/>
<path d="M29.9059 29.4953V28.7267H33.4214V1.10491H27.8833V0.336304H51.625V8.31059H50.8544C50.7581 6.91749 50.421 5.66851 49.8913 4.61168C49.3615 3.55484 48.591 2.69016 47.5797 2.01763C46.5684 1.3451 45.3163 1.10491 43.7753 1.10491H38.5261V28.7747H43.39C45.1718 28.7747 46.6166 28.4385 47.7242 27.814C48.8318 27.1414 49.6987 26.2287 50.2765 25.0278C50.8544 23.8268 51.1915 22.4337 51.2879 20.7524H52.0584V29.4953H29.9059ZM44.6421 19.023C44.5458 18.1584 44.2568 17.3898 43.8234 16.7653C43.39 16.1408 42.8603 15.6604 42.2342 15.3241C41.6082 14.9879 40.934 14.7957 40.1634 14.7957H37.5629V14.0271H40.1634C40.8858 14.0271 41.6082 13.883 42.1861 13.5467C42.8121 13.2105 43.3418 12.7781 43.7753 12.1536C44.2087 11.5291 44.4976 10.8086 44.5939 9.94388H45.3645V18.975L44.6421 19.023Z" fill="black"/>
<path d="M66.7946 29.8796L56.9223 1.05687H53.4549V0.336304H84.2758V1.10491H74.2109L81.7235 23.2984L89.7658 1.10491H86.1058V0.336304H93.8592V1.10491H90.5845L80.1824 29.9276H78.7377L68.8172 1.10491H62.6049L70.1656 23.2984L73.8738 13.1144L74.3072 14.3634L68.6246 29.8796H66.7946ZM77.1003 11.4331L76.378 10.9046L80.0861 0.624531L80.9048 0.768645L77.1003 11.4331Z" fill="black"/>
<path d="M113.748 14.7477V14.3153H119.479C120.731 14.3153 121.791 14.0751 122.609 13.5948C123.476 13.1144 124.102 12.3938 124.536 11.385C124.969 10.4243 125.21 9.17528 125.21 7.6861C125.21 6.19693 124.969 4.94794 124.536 3.98718C124.102 3.02643 123.428 2.25782 122.609 1.77744C121.791 1.29706 120.683 1.05687 119.479 1.05687H106.717V0.336304H120.057C122.128 0.336304 123.958 0.576493 125.547 1.10491C127.136 1.63333 128.34 2.44997 129.207 3.5068C130.074 4.56364 130.507 6.00477 130.507 7.6861C130.507 9.36743 130.074 10.7605 129.255 11.7693C128.436 12.8262 127.232 13.5467 125.691 14.0271C124.15 14.5075 122.224 14.7477 120.009 14.7477H113.748ZM106.717 29.4953V28.7267H119.961V29.4953H106.717ZM110.762 29.111V0.816683H115.867V29.111H110.762ZM129.64 29.7835C128.388 29.7835 127.425 29.5914 126.703 29.159C125.98 28.7267 125.499 28.1983 125.162 27.4777C124.825 26.7571 124.632 25.9885 124.536 25.1239C124.439 24.2592 124.391 23.3465 124.391 22.4337C124.391 21.521 124.343 20.6083 124.247 19.7436C124.15 18.8789 124.006 18.1103 123.669 17.3898C123.332 16.6692 122.898 16.1408 122.224 15.7084C121.55 15.2761 120.635 15.0839 119.431 15.0839H113.796V14.6516H121.598C123.428 14.6516 124.873 14.8918 125.932 15.4202C126.992 15.9486 127.81 16.6211 128.34 17.4378C128.87 18.3025 129.255 19.2152 129.399 20.224C129.592 21.2328 129.688 22.2416 129.688 23.2504C129.688 24.2592 129.737 25.1719 129.785 26.0366C129.833 26.8532 129.977 27.5257 130.218 28.0542C130.459 28.5826 130.941 28.8228 131.567 28.8228C131.952 28.8228 132.337 28.7747 132.674 28.6787C133.011 28.5826 133.3 28.4865 133.589 28.3424L133.83 29.063C133.493 29.2551 132.963 29.3992 132.241 29.5433C131.47 29.6875 130.603 29.7835 129.64 29.7835Z" fill="black"/>
<path d="M135.66 29.4953V28.7267H139.175V1.10491H135.66V0.336304H157.427V8.31059H156.657C156.56 6.91749 156.223 5.66851 155.694 4.61168C155.164 3.5068 154.393 2.69016 153.382 2.01763C152.371 1.39314 151.119 1.10491 149.578 1.10491H144.328V28.7747H149.192C150.974 28.7747 152.419 28.4385 153.526 27.814C154.634 27.1414 155.501 26.2287 156.079 25.0278C156.657 23.8268 156.994 22.4337 157.09 20.7524H157.861V29.4953H135.66ZM150.348 19.023C150.252 18.1584 149.963 17.3898 149.529 16.7653C149.096 16.1408 148.566 15.6604 147.94 15.3241C147.314 14.9879 146.64 14.7957 145.869 14.7957H143.269V14.0271H145.869C146.592 14.0271 147.314 13.883 147.892 13.5467C148.518 13.2105 149.048 12.7781 149.481 12.1536C149.915 11.5291 150.204 10.8086 150.3 9.94388H151.07V18.975L150.348 19.023Z" fill="black"/>
<path d="M175.053 -0.240173L185.118 28.7267H188.152V29.4953H175.583V28.7267H179.243L171.874 5.95671L163.88 28.7267H168.022V29.4953H159.402V28.7267H163.013L173.271 -0.240173H175.053ZM166.529 20.4161V19.6475H178.761V20.4161H166.529Z" fill="black"/>
<path d="M189.693 29.4953V28.7267H193.208V1.10491H189.693V0.336304H201.829V1.10491H198.361V28.7747H203.081C204.525 28.7747 205.777 28.5826 206.741 28.2463C207.704 27.9101 208.522 27.3336 209.1 26.6611C209.678 25.9885 210.112 25.1239 210.401 24.1631C210.69 23.2023 210.882 22.0494 210.978 20.8485H211.749V29.5914L189.693 29.4953Z" fill="black"/>
<path d="M215.602 29.0149V28.2463H219.888V0.624502H216.902C215.842 0.624502 214.927 0.816654 214.157 1.24899C213.386 1.68134 212.808 2.20975 212.327 2.97836C211.845 3.69893 211.508 4.61165 211.267 5.62044C211.027 6.62924 210.882 7.78215 210.786 8.98309H210.015V-0.144104H234.865V8.98309H234.094C233.998 7.73411 233.853 6.62924 233.613 5.62044C233.372 4.61165 232.986 3.69893 232.553 2.97836C232.071 2.25779 231.494 1.6333 230.723 1.24899C230.001 0.864691 229.086 0.624502 227.978 0.624502H224.992V28.2943H229.278V29.0629H215.602V29.0149Z" fill="black"/>
<path d="M244.592 29.0149V28.2463H248.06V14.9878L239.44 0.576468H236.502V-0.192139H249.216V0.576468H245.315L252.827 13.4026L260.051 0.624505H255.958V-0.144101H264V0.624505H260.966L253.213 14.2673V28.2943H257.113V29.0629H244.592V29.0149Z" fill="black"/>
<path d="M67.7578 71C66.2167 71 64.8683 70.7598 63.7125 70.2794C62.5567 69.7991 61.5936 69.1265 60.7749 68.3099L58.1744 70.8559H57.5002V62.161H58.2707C58.5596 63.2179 58.9931 64.2267 59.4746 65.1874C59.9562 66.1482 60.5823 67.0129 61.3528 67.7815C62.1233 68.5501 62.9901 69.1265 64.0015 69.6069C65.0128 70.0873 66.1686 70.2794 67.4688 70.2794C68.7691 70.2794 69.8767 70.0392 70.8398 69.6069C71.803 69.1746 72.5254 68.502 73.0069 67.6854C73.4885 66.8687 73.7775 65.8599 73.7775 64.707C73.7775 63.6022 73.4885 62.6894 72.9106 61.9689C72.3327 61.2483 71.6104 60.5758 70.6472 60.0474C69.6841 59.5189 68.7209 58.9905 67.5651 58.5102C66.4093 58.0298 65.3499 57.5494 64.2422 57.021C63.1346 56.4926 62.1233 55.8681 61.2083 55.0995C60.2933 54.3789 59.5228 53.4662 58.9449 52.4093C58.367 51.3525 58.0781 50.0555 58.0781 48.5183C58.0781 46.9811 58.4633 45.636 59.2339 44.4831C60.0044 43.3302 61.0638 42.4655 62.3159 41.841C63.6162 41.2165 64.9646 40.9283 66.5057 40.9283C67.7096 40.9283 68.8172 41.1204 69.8767 41.5047C70.888 41.889 71.803 42.4655 72.6217 43.2341L75.174 40.9283H75.8001V49.383H75.0296C74.5961 47.7497 74.0182 46.3566 73.2477 45.2037C72.4772 44.0507 71.5622 43.1861 70.4546 42.6096C69.3951 42.0332 68.143 41.7449 66.7464 41.7449C65.0609 41.7449 63.8088 42.1773 62.942 42.9459C62.0752 43.7625 61.5936 44.8194 61.5936 46.1644C61.5936 47.1252 61.8825 47.9899 62.4123 48.6624C62.9902 49.3349 63.7125 49.9594 64.6275 50.4398C65.5425 50.9682 66.5538 51.4486 67.6614 51.929C68.7691 52.4093 69.8767 52.9378 70.9843 53.5142C72.0919 54.0907 73.1032 54.7632 74.0182 55.5318C74.9332 56.3004 75.6556 57.2131 76.2335 58.318C76.8114 59.4229 77.0522 60.7679 77.0522 62.3051C77.0522 64.0825 76.6669 65.6198 75.8482 66.9168C75.0296 68.2138 73.9219 69.2226 72.5254 69.9432C71.2251 70.6637 69.5877 71 67.7578 71Z" fill="black"/>
<path d="M92.896 70.8079C90.1029 70.8079 87.695 70.1834 85.6242 68.8863C83.5534 67.5893 81.9642 65.8119 80.8566 63.5541C79.749 61.2964 79.1711 58.7023 79.1711 55.82C79.1711 52.9378 79.749 50.3437 80.8566 48.0859C81.9642 45.8282 83.5534 44.0508 85.6242 42.7537C87.695 41.4567 90.1029 40.8322 92.896 40.8322C94.1481 40.8322 95.3039 41.0244 96.3634 41.4567C97.4228 41.889 98.4341 42.4655 99.301 43.2821L101.95 41.2646H102.624V49.5751H101.805C101.468 47.9899 100.89 46.6448 100.072 45.4919C99.2528 44.339 98.2415 43.4263 97.0857 42.8018C95.8818 42.1773 94.6297 41.841 93.2331 41.841C91.6921 41.841 90.3918 42.2253 89.3324 43.042C88.2729 43.8586 87.4542 44.9154 86.78 46.2125C86.154 47.5575 85.6724 49.0467 85.4316 50.728C85.1426 52.4093 84.9982 54.1387 84.9982 55.8681C84.9982 57.5974 85.1426 59.3268 85.4316 61.0081C85.7205 62.6895 86.154 64.1786 86.78 65.5237C87.406 66.8687 88.2729 67.9256 89.3324 68.6942C90.3918 69.4628 91.6921 69.8951 93.2331 69.8951C94.5334 69.8951 95.6892 69.703 96.7005 69.2706C97.7118 68.8383 98.5786 68.3099 99.3491 67.5893C100.072 66.8688 100.698 66.0521 101.179 65.0914C101.661 64.1306 101.998 63.1218 102.239 62.065H103.057V70.3755H102.383L99.927 68.2138C99.0602 68.9824 98.0007 69.6069 96.8449 70.0873C95.5928 70.6157 94.2926 70.8079 92.896 70.8079Z" fill="black"/>
<path d="M135.034 41.2646V42.0332H131.518V69.703H135.034V70.4716H122.754V69.703H126.414V56.4445H114.952V69.703H118.612V70.4716H106.332V69.703H109.847V42.0332H106.332V41.2646H118.612V42.0332H114.952V55.6759H126.414V42.0332H122.754V41.2646H135.034Z" fill="black"/>
<path d="M148.566 70.8078C146.495 70.8078 144.714 70.4235 143.076 69.6549C141.487 68.8863 140.139 67.8295 139.031 66.4844C137.923 65.1394 137.057 63.5541 136.479 61.7287C135.901 59.9032 135.612 57.9337 135.612 55.8681C135.612 53.7544 135.901 51.7848 136.527 50.0074C137.153 48.23 138.02 46.5968 139.175 45.2517C140.331 43.9066 141.68 42.8498 143.269 42.0812C144.858 41.3126 146.64 40.9283 148.566 40.9283C150.493 40.9283 152.274 41.3126 153.864 42.0812C155.453 42.8498 156.801 43.9066 157.957 45.2517C159.113 46.5968 159.98 48.182 160.606 50.0074C161.232 51.8329 161.521 53.8024 161.521 55.8681C161.521 57.9817 161.232 59.9513 160.654 61.7287C160.076 63.5061 159.209 65.1394 158.101 66.4844C156.994 67.8295 155.645 68.8863 154.008 69.6549C152.419 70.4235 150.589 70.8078 148.566 70.8078ZM148.566 70.1353C150.059 70.1353 151.263 69.751 152.178 68.9824C153.093 68.2138 153.815 67.157 154.297 65.86C154.779 64.5629 155.116 63.0257 155.308 61.2963C155.501 59.567 155.597 57.7415 155.597 55.8681C155.597 53.9946 155.501 52.1692 155.26 50.4398C155.019 48.7104 154.682 47.1732 154.153 45.8762C153.623 44.5792 152.9 43.5223 151.985 42.7537C151.07 41.9851 149.915 41.6008 148.518 41.6008C147.121 41.6008 145.966 41.9851 145.051 42.7537C144.136 43.5223 143.413 44.5792 142.884 45.8762C142.354 47.1732 142.017 48.7104 141.776 50.4398C141.535 52.1692 141.439 53.9946 141.439 55.8681C141.439 57.7415 141.535 59.567 141.728 61.2963C141.92 63.0257 142.258 64.5629 142.739 65.86C143.221 67.157 143.943 68.2138 144.906 68.9824C145.869 69.751 147.073 70.1353 148.566 70.1353Z" fill="black"/>
<path d="M177.461 70.8078C175.39 70.8078 173.608 70.4235 171.971 69.6549C170.333 68.8863 169.033 67.8295 167.926 66.4844C166.818 65.1394 165.951 63.5541 165.373 61.7287C164.795 59.9032 164.506 57.9337 164.506 55.8681C164.506 53.7544 164.795 51.7848 165.421 50.0074C166.047 48.23 166.914 46.5968 168.07 45.2517C169.226 43.9066 170.574 42.8498 172.163 42.0812C173.753 41.3126 175.534 40.9283 177.461 40.9283C179.387 40.9283 181.169 41.3126 182.758 42.0812C184.347 42.8498 185.696 43.9066 186.852 45.2517C188.007 46.5968 188.874 48.182 189.5 50.0074C190.126 51.8329 190.415 53.8024 190.415 55.8681C190.415 57.9817 190.126 59.9513 189.548 61.7287C188.97 63.5061 188.104 65.1394 186.996 66.4844C185.888 67.8295 184.54 68.8863 182.903 69.6549C181.265 70.4235 179.483 70.8078 177.461 70.8078ZM177.461 70.1353C178.954 70.1353 180.158 69.751 181.073 68.9824C181.988 68.2138 182.71 67.157 183.192 65.86C183.673 64.5149 184.01 63.0257 184.203 61.2963C184.395 59.567 184.492 57.7415 184.492 55.8681C184.492 53.9946 184.395 52.1692 184.155 50.4398C183.914 48.7104 183.577 47.1732 183.047 45.8762C182.517 44.5792 181.795 43.5223 180.88 42.7537C179.965 41.9851 178.809 41.6008 177.413 41.6008C176.016 41.6008 174.86 41.9851 173.945 42.7537C173.03 43.5223 172.308 44.5792 171.778 45.8762C171.248 47.1732 170.911 48.7104 170.671 50.4398C170.43 52.1692 170.333 53.9946 170.333 55.8681C170.333 57.7415 170.43 59.567 170.622 61.2963C170.815 63.0257 171.152 64.5629 171.634 65.86C172.115 67.157 172.838 68.2138 173.801 68.9824C174.716 69.751 175.968 70.1353 177.461 70.1353Z" fill="black"/>
<path d="M191.908 70.4236V69.655H195.424V42.0332H191.908V41.2646H204.044V42.0332H200.576V69.703H205.296C206.741 69.703 207.993 69.5108 208.956 69.1746C209.919 68.7903 210.738 68.2619 211.316 67.5893C211.893 66.8688 212.327 66.0521 212.616 65.0914C212.905 64.1306 213.097 62.9777 213.194 61.7767H213.964V70.5196L191.908 70.4236Z" fill="black"/>
</g>
<defs>
<clipPath id="clip0_2_25">
<rect width="264" height="71" fill="white"/>
</clipPath>
</defs>
</svg>
