<svg width="214" height="58" viewBox="0 0 214 58" fill="none" xmlns="http://www.w3.org/2000/svg">
<g clip-path="url(#clip0_7_46)">
<path d="M3.90368 0.274658V23.5061H7.57315V24.1339H0V23.5061H3.24006V0.902534H0V0.274658H3.90368ZM22.9927 0.274658V0.902534H19.6746V24.4479H18.8158L3.43524 0.274658H8.39292L19.0109 17.2665V0.902534H15.4196V0.274658H22.9927Z" fill="white"/>
<path d="M24.2419 24.0947V23.4668H27.0916V0.902534H22.6024V0.274658H41.8475V6.78887H41.2229C41.1449 5.65084 40.8716 4.63054 40.4422 3.76722C40.0128 2.90389 39.3882 2.19753 38.5684 1.64814C37.7487 1.09874 36.7337 0.902534 35.4845 0.902534H31.2295V23.5061H35.1722C36.6166 23.5061 37.7877 23.2314 38.6855 22.7212C39.5834 22.1718 40.286 21.4262 40.7545 20.4452C41.2229 19.4641 41.4962 18.3261 41.5743 16.9526H42.1989V24.0947H24.2419ZM36.1872 15.5399C36.1091 14.8335 35.8749 14.2056 35.5236 13.6955C35.1722 13.1853 34.7428 12.7929 34.2353 12.5182C33.7279 12.2435 33.1813 12.0866 32.5568 12.0866H30.4488V11.4587H32.5568C33.1423 11.4587 33.7279 11.341 34.1963 11.0663C34.7038 10.7916 35.1332 10.4384 35.4845 9.92824C35.8358 9.41809 36.0701 8.82946 36.1481 8.1231H36.7727V15.5006L36.1872 15.5399Z" fill="white"/>
<path d="M54.1441 24.4086L46.1415 0.863292H43.3309V0.274658H68.3145V0.902534H60.1558L66.2455 19.0324L72.7647 0.902534H69.7979V0.274658H76.0828V0.902534H73.4283L64.9963 24.4479H63.8252L55.7836 0.902534H50.7479L56.8767 19.0324L59.8825 10.7131L60.2338 11.7334L55.6275 24.4086H54.1441ZM62.498 9.33961L61.9124 8.90795L64.9182 0.510112L65.5819 0.627838L62.498 9.33961Z" fill="white"/>
<path d="M92.2051 12.0473V11.6941H96.8504C97.8654 11.6941 98.7242 11.4979 99.3878 11.1055C100.09 10.7131 100.598 10.1245 100.949 9.30037C101.301 8.51552 101.496 7.49523 101.496 6.27872C101.496 5.06221 101.301 4.04191 100.949 3.25707C100.598 2.47222 100.051 1.84435 99.3878 1.45192C98.7242 1.0595 97.8264 0.863291 96.8504 0.863291H86.5057V0.274658H97.3189C98.9975 0.274658 100.481 0.470869 101.769 0.902534C103.057 1.3342 104.033 2.00132 104.736 2.86464C105.439 3.72797 105.79 4.90524 105.79 6.27872C105.79 7.65219 105.439 8.79022 104.775 9.61431C104.111 10.4776 103.135 11.0663 101.886 11.4587C100.637 11.8511 99.0755 12.0473 97.2798 12.0473H92.2051ZM86.5057 24.0947V23.4668H97.2408V24.0947H86.5057ZM89.7848 23.7807V0.66708H93.9227V23.7807H89.7848ZM105.087 24.3301C104.072 24.3301 103.292 24.1732 102.706 23.82C102.12 23.4668 101.73 23.0351 101.457 22.4465C101.184 21.8579 101.027 21.23 100.949 20.5236C100.871 19.8173 100.832 19.0717 100.832 18.3261C100.832 17.5805 100.793 16.8349 100.715 16.1285C100.637 15.4222 100.52 14.7943 100.247 14.2056C99.9734 13.617 99.6221 13.1853 99.0755 12.8322C98.529 12.479 97.7873 12.322 96.8114 12.322H92.2441V11.9688H98.5681C100.051 11.9688 101.223 12.165 102.081 12.5967C102.94 13.0284 103.604 13.5778 104.033 14.2449C104.463 14.9512 104.775 15.6968 104.892 16.5209C105.048 17.345 105.126 18.1691 105.126 18.9932C105.126 19.8173 105.165 20.5629 105.204 21.2692C105.243 21.9364 105.36 22.4858 105.556 22.9174C105.751 23.3491 106.141 23.5453 106.649 23.5453C106.961 23.5453 107.273 23.5061 107.547 23.4276C107.82 23.3491 108.054 23.2706 108.288 23.1529L108.483 23.7415C108.21 23.8985 107.781 24.0162 107.195 24.1339C106.571 24.2517 105.868 24.3301 105.087 24.3301Z" fill="white"/>
<path d="M109.967 24.0947V23.4668H112.816V0.902534H109.967V0.274658H127.611V6.78887H126.987C126.909 5.65084 126.636 4.63054 126.206 3.76722C125.777 2.86464 125.152 2.19753 124.332 1.64814C123.513 1.13799 122.498 0.902534 121.248 0.902534H116.993V23.5061H120.936C122.381 23.5061 123.552 23.2314 124.449 22.7212C125.347 22.1718 126.05 21.4262 126.518 20.4452C126.987 19.4641 127.26 18.3261 127.338 16.9526H127.963V24.0947H109.967ZM121.873 15.5399C121.795 14.8335 121.561 14.2056 121.209 13.6955C120.858 13.1853 120.429 12.7929 119.921 12.5182C119.414 12.2435 118.867 12.0866 118.243 12.0866H116.135V11.4587H118.243C118.828 11.4587 119.414 11.341 119.882 11.0663C120.39 10.7916 120.819 10.4384 121.17 9.92824C121.522 9.41809 121.756 8.82946 121.834 8.1231H122.459V15.5006L121.873 15.5399Z" fill="white"/>
<path d="M141.899 -0.196289L150.058 23.4668H152.517V24.0946H142.328V23.4668H145.295L139.323 4.86596L132.842 23.4668H136.2V24.0946H129.212V23.4668H132.14L140.455 -0.196289H141.899ZM134.989 16.6779V16.05H144.905V16.6779H134.989Z" fill="white"/>
<path d="M153.766 24.0947V23.4668H156.616V0.902534H153.766V0.274658H163.603V0.902534H160.793V23.5061H164.618C165.789 23.5061 166.804 23.3491 167.585 23.0744C168.366 22.7997 169.03 22.3288 169.498 21.7794C169.966 21.23 170.318 20.5236 170.552 19.7388C170.786 18.954 170.942 18.0121 171.02 17.0311H171.645V24.1732L153.766 24.0947Z" fill="white"/>
<path d="M174.768 23.7021V23.0742H178.242V0.509956H175.822C174.963 0.509956 174.221 0.666924 173.597 1.0201C172.972 1.37328 172.504 1.80495 172.113 2.43282C171.723 3.02146 171.45 3.76706 171.255 4.59115C171.059 5.41523 170.942 6.35705 170.864 7.3381H170.24V-0.11792H190.383V7.3381H189.758C189.68 6.3178 189.563 5.41523 189.368 4.59115C189.173 3.76706 188.86 3.02146 188.509 2.43282C188.119 1.84419 187.65 1.33404 187.026 1.0201C186.44 0.706167 185.698 0.509956 184.8 0.509956H182.38V23.1135H185.854V23.7413H174.768V23.7021Z" fill="white"/>
<path d="M198.268 23.7023V23.0744H201.079V12.2436L194.091 0.470893H191.71V-0.156982H202.016V0.470893H198.854L204.943 10.9486L210.799 0.510135H207.481V-0.11774H214V0.510135H211.541L205.256 11.6549V23.1137H208.418V23.7415H198.268V23.7023Z" fill="white"/>
<path d="M54.9248 58C53.6757 58 52.5826 57.8037 51.6457 57.4113C50.7089 57.0189 49.9281 56.4695 49.2645 55.8024L47.1565 57.8822H46.61V50.7794H47.2346C47.4688 51.6427 47.8201 52.4668 48.2105 53.2516C48.6009 54.0365 49.1083 54.7429 49.7329 55.3707C50.3575 55.9986 51.0602 56.4695 51.88 56.8619C52.6997 57.2544 53.6366 57.4113 54.6906 57.4113C55.7446 57.4113 56.6425 57.2151 57.4232 56.8619C58.2039 56.5088 58.7895 55.9594 59.1799 55.2922C59.5702 54.6251 59.8044 53.801 59.8044 52.8592C59.8044 51.9567 59.5702 51.2111 59.1018 50.6224C58.6333 50.0338 58.0478 49.4844 57.267 49.0527C56.4863 48.6211 55.7056 48.1894 54.7687 47.797C53.8318 47.4046 52.973 47.0121 52.0751 46.5805C51.1773 46.1488 50.3575 45.6387 49.6158 45.0108C48.8741 44.4221 48.2495 43.6765 47.7811 42.8132C47.3126 41.9499 47.0784 40.8903 47.0784 39.6346C47.0784 38.3788 47.3907 37.2801 48.0153 36.3383C48.6399 35.3964 49.4987 34.6901 50.5137 34.1799C51.5677 33.6698 52.6607 33.4343 53.9099 33.4343C54.8858 33.4343 55.7836 33.5913 56.6425 33.9052C57.4622 34.2192 58.2039 34.6901 58.8676 35.318L60.9365 33.4343H61.444V40.341H60.8194C60.4681 39.0067 59.9996 37.8687 59.375 36.9269C58.7504 35.9851 58.0087 35.2787 57.1109 34.8078C56.2521 34.3369 55.2371 34.1014 54.1051 34.1014C52.7388 34.1014 51.7238 34.4546 51.0211 35.0825C50.3185 35.7496 49.9281 36.6129 49.9281 37.7117C49.9281 38.4966 50.1623 39.2029 50.5917 39.7523C51.0602 40.3017 51.6457 40.8119 52.3874 41.2043C53.1291 41.636 53.9489 42.0284 54.8468 42.4208C55.7446 42.8132 56.6425 43.2449 57.5403 43.7158C58.4381 44.1867 59.2579 44.7361 59.9996 45.364C60.7413 45.9918 61.3269 46.7374 61.7953 47.64C62.2638 48.5426 62.4589 49.6414 62.4589 50.8971C62.4589 52.3491 62.1466 53.6048 61.483 54.6644C60.8194 55.7239 59.9216 56.548 58.7895 57.1366C57.7355 57.7253 56.4082 58 54.9248 58Z" fill="white"/>
<path d="M75.3021 57.8429C73.0379 57.8429 71.0861 57.3327 69.4075 56.2732C67.7289 55.2136 66.4407 53.7617 65.5429 51.9173C64.645 50.0729 64.1766 47.9538 64.1766 45.5993C64.1766 43.2448 64.645 41.1257 65.5429 39.2813C66.4407 37.4369 67.7289 35.9849 69.4075 34.9254C71.0861 33.8659 73.0379 33.3557 75.3021 33.3557C76.317 33.3557 77.2539 33.5127 78.1127 33.8659C78.9715 34.219 79.7913 34.6899 80.494 35.3571L82.641 33.7089H83.1875V40.4978H82.5239C82.2506 39.2028 81.7822 38.104 81.1186 37.1622C80.4549 36.2204 79.6352 35.4748 78.6983 34.9646C77.7224 34.4545 76.7074 34.1798 75.5753 34.1798C74.3262 34.1798 73.2722 34.4937 72.4134 35.1609C71.5545 35.828 70.8909 36.6913 70.3444 37.7508C69.8369 38.8496 69.4465 40.0661 69.2514 41.4396C69.0171 42.8131 68.9 44.2258 68.9 45.6385C68.9 47.0512 69.0171 48.464 69.2514 49.8374C69.4856 51.2109 69.8369 52.4274 70.3444 53.5262C70.8519 54.625 71.5545 55.4883 72.4134 56.1162C73.2722 56.7441 74.3262 57.0973 75.5753 57.0973C76.6293 57.0973 77.5662 56.9403 78.386 56.5871C79.2058 56.2339 79.9084 55.8023 80.533 55.2136C81.1186 54.625 81.626 53.9579 82.0164 53.173C82.4068 52.3882 82.68 51.5641 82.8752 50.7008H83.5389V57.4897H82.9923L81.0015 55.7238C80.2988 56.3517 79.44 56.8618 78.5031 57.2542C77.4881 57.6859 76.4341 57.8429 75.3021 57.8429Z" fill="white"/>
<path d="M109.459 33.709V34.3369H106.61V56.9404H109.459V57.5683H99.5049V56.9404H102.472V46.1095H93.181V56.9404H96.1478V57.5683H86.1934V56.9404H89.0431V34.3369H86.1934V33.709H96.1478V34.3369H93.181V45.4816H102.472V34.3369H99.5049V33.709H109.459Z" fill="white"/>
<path d="M120.429 57.843C118.75 57.843 117.306 57.5291 115.978 56.9012C114.69 56.2733 113.597 55.41 112.699 54.3112C111.802 53.2124 111.099 51.9174 110.63 50.4262C110.162 48.935 109.928 47.3261 109.928 45.6387C109.928 43.912 110.162 42.3031 110.669 40.8511C111.177 39.3991 111.88 38.0649 112.816 36.9661C113.753 35.8673 114.846 35.004 116.135 34.3761C117.423 33.7483 118.867 33.4343 120.429 33.4343C121.99 33.4343 123.434 33.7483 124.723 34.3761C126.011 35.004 127.104 35.8673 128.041 36.9661C128.978 38.0649 129.68 39.3599 130.188 40.8511C130.695 42.3423 130.93 43.9512 130.93 45.6387C130.93 47.3653 130.695 48.9742 130.227 50.4262C129.758 51.8782 129.056 53.2124 128.158 54.3112C127.26 55.41 126.167 56.2733 124.84 56.9012C123.552 57.5291 122.068 57.843 120.429 57.843ZM120.429 57.2936C121.639 57.2936 122.615 56.9797 123.356 56.3518C124.098 55.7239 124.684 54.8606 125.074 53.801C125.464 52.7415 125.738 51.4857 125.894 50.073C126.05 48.6603 126.128 47.1691 126.128 45.6387C126.128 44.1082 126.05 42.617 125.855 41.2043C125.66 39.7916 125.386 38.5358 124.957 37.4763C124.528 36.4167 123.942 35.5534 123.2 34.9255C122.459 34.2977 121.522 33.9837 120.39 33.9837C119.258 33.9837 118.321 34.2977 117.579 34.9255C116.837 35.5534 116.252 36.4167 115.822 37.4763C115.393 38.5358 115.12 39.7916 114.924 41.2043C114.729 42.617 114.651 44.1082 114.651 45.6387C114.651 47.1691 114.729 48.6603 114.885 50.073C115.042 51.4857 115.315 52.7415 115.705 53.801C116.096 54.8606 116.681 55.7239 117.462 56.3518C118.243 56.9797 119.219 57.2936 120.429 57.2936Z" fill="white"/>
<path d="M143.851 57.843C142.172 57.843 140.728 57.5291 139.401 56.9012C138.073 56.2733 137.019 55.41 136.121 54.3112C135.224 53.2124 134.521 51.9174 134.053 50.4262C133.584 48.935 133.35 47.3261 133.35 45.6387C133.35 43.912 133.584 42.3031 134.092 40.8511C134.599 39.3991 135.302 38.0649 136.239 36.9661C137.175 35.8673 138.268 35.004 139.557 34.3761C140.845 33.7483 142.289 33.4343 143.851 33.4343C145.412 33.4343 146.857 33.7483 148.145 34.3761C149.433 35.004 150.526 35.8673 151.463 36.9661C152.4 38.0649 153.102 39.3599 153.61 40.8511C154.117 42.3423 154.352 43.9512 154.352 45.6387C154.352 47.3653 154.117 48.9742 153.649 50.4262C153.181 51.8782 152.478 53.2124 151.58 54.3112C150.682 55.41 149.589 56.2733 148.262 56.9012C146.935 57.5291 145.49 57.843 143.851 57.843ZM143.851 57.2936C145.061 57.2936 146.037 56.9797 146.779 56.3518C147.52 55.7239 148.106 54.8606 148.496 53.801C148.887 52.7023 149.16 51.4857 149.316 50.073C149.472 48.6603 149.55 47.1691 149.55 45.6387C149.55 44.1082 149.472 42.617 149.277 41.2043C149.082 39.7916 148.808 38.5358 148.379 37.4763C147.95 36.4167 147.364 35.5534 146.622 34.9255C145.881 34.2977 144.944 33.9837 143.812 33.9837C142.68 33.9837 141.743 34.2977 141.001 34.9255C140.259 35.5534 139.674 36.4167 139.244 37.4763C138.815 38.5358 138.542 39.7916 138.347 41.2043C138.151 42.617 138.073 44.1082 138.073 45.6387C138.073 47.1691 138.151 48.6603 138.308 50.073C138.464 51.4857 138.737 52.7415 139.127 53.801C139.518 54.8606 140.103 55.7239 140.884 56.3518C141.626 56.9797 142.641 57.2936 143.851 57.2936Z" fill="white"/>
<path d="M155.562 57.529V56.9011H158.412V34.3369H155.562V33.709H165.399V34.3369H162.588V56.9404H166.414C167.585 56.9404 168.6 56.7834 169.381 56.5087C170.162 56.1948 170.825 55.7631 171.294 55.2137C171.762 54.6251 172.113 53.958 172.348 53.1731C172.582 52.3883 172.738 51.4465 172.816 50.4654H173.441V57.6075L155.562 57.529Z" fill="white"/>
</g>
<defs>
<clipPath id="clip0_7_46">
<rect width="214" height="58" fill="white"/>
</clipPath>
</defs>
</svg>
